<mxfile host="app.diagrams.net" modified="2024-07-19T09:42:05.991Z" agent="Mozilla/5.0 (Windows NT 10.0; Win64; x64; rv:125.0) Gecko/20100101 Firefox/125.0" etag="2MiVvQXs32qTe5Fe3wml" version="24.7.1" type="github">
  <diagram name="Page-1" id="rOxkXMHrx36m_MceSFV0">
    <mxGraphModel dx="1434" dy="774" grid="1" gridSize="10" guides="1" tooltips="1" connect="1" arrows="1" fold="1" page="1" pageScale="1" pageWidth="1169" pageHeight="827" math="0" shadow="0">
      <root>
        <mxCell id="0" />
        <mxCell id="1" parent="0" />
        <mxCell id="cjUs0fhQYjhIE11ryxrH-1" value="&lt;div style=&quot;font-size: 11px;&quot;&gt;Controller&lt;/div&gt;" style="shape=umlLifeline;perimeter=lifelinePerimeter;whiteSpace=wrap;html=1;container=0;dropTarget=0;collapsible=0;recursiveResize=0;outlineConnect=0;portConstraint=eastwest;newEdgeStyle={&quot;edgeStyle&quot;:&quot;elbowEdgeStyle&quot;,&quot;elbow&quot;:&quot;vertical&quot;,&quot;curved&quot;:0,&quot;rounded&quot;:0};fontSize=11;" vertex="1" parent="1">
          <mxGeometry x="440" y="40" width="100" height="640" as="geometry" />
        </mxCell>
        <mxCell id="cjUs0fhQYjhIE11ryxrH-2" value="" style="html=1;points=[];perimeter=orthogonalPerimeter;outlineConnect=0;targetShapes=umlLifeline;portConstraint=eastwest;newEdgeStyle={&quot;edgeStyle&quot;:&quot;elbowEdgeStyle&quot;,&quot;elbow&quot;:&quot;vertical&quot;,&quot;curved&quot;:0,&quot;rounded&quot;:0};fontSize=11;" vertex="1" parent="cjUs0fhQYjhIE11ryxrH-1">
          <mxGeometry x="45" y="138" width="10" height="102" as="geometry" />
        </mxCell>
        <mxCell id="cjUs0fhQYjhIE11ryxrH-3" value="" style="html=1;points=[];perimeter=orthogonalPerimeter;outlineConnect=0;targetShapes=umlLifeline;portConstraint=eastwest;newEdgeStyle={&quot;edgeStyle&quot;:&quot;elbowEdgeStyle&quot;,&quot;elbow&quot;:&quot;vertical&quot;,&quot;curved&quot;:0,&quot;rounded&quot;:0};fontSize=11;" vertex="1" parent="cjUs0fhQYjhIE11ryxrH-1">
          <mxGeometry x="45" y="280" width="10" height="80" as="geometry" />
        </mxCell>
        <mxCell id="cjUs0fhQYjhIE11ryxrH-4" value="" style="html=1;points=[];perimeter=orthogonalPerimeter;outlineConnect=0;targetShapes=umlLifeline;portConstraint=eastwest;newEdgeStyle={&quot;edgeStyle&quot;:&quot;elbowEdgeStyle&quot;,&quot;elbow&quot;:&quot;vertical&quot;,&quot;curved&quot;:0,&quot;rounded&quot;:0};fontSize=11;" vertex="1" parent="cjUs0fhQYjhIE11ryxrH-1">
          <mxGeometry x="45" y="430" width="10" height="160" as="geometry" />
        </mxCell>
        <mxCell id="cjUs0fhQYjhIE11ryxrH-5" value="Staff Input Form" style="shape=umlLifeline;perimeter=lifelinePerimeter;whiteSpace=wrap;html=1;container=0;dropTarget=0;collapsible=0;recursiveResize=0;outlineConnect=0;portConstraint=eastwest;newEdgeStyle={&quot;edgeStyle&quot;:&quot;elbowEdgeStyle&quot;,&quot;elbow&quot;:&quot;vertical&quot;,&quot;curved&quot;:0,&quot;rounded&quot;:0};fontSize=11;" vertex="1" parent="1">
          <mxGeometry x="200" y="40" width="100" height="640" as="geometry" />
        </mxCell>
        <mxCell id="cjUs0fhQYjhIE11ryxrH-6" value="" style="html=1;points=[];perimeter=orthogonalPerimeter;outlineConnect=0;targetShapes=umlLifeline;portConstraint=eastwest;newEdgeStyle={&quot;edgeStyle&quot;:&quot;elbowEdgeStyle&quot;,&quot;elbow&quot;:&quot;vertical&quot;,&quot;curved&quot;:0,&quot;rounded&quot;:0};fontSize=11;" vertex="1" parent="cjUs0fhQYjhIE11ryxrH-5">
          <mxGeometry x="45" y="266" width="10" height="344" as="geometry" />
        </mxCell>
        <mxCell id="cjUs0fhQYjhIE11ryxrH-7" value="En/Decrypt Services" style="shape=umlLifeline;perimeter=lifelinePerimeter;whiteSpace=wrap;html=1;container=0;dropTarget=0;collapsible=0;recursiveResize=0;outlineConnect=0;portConstraint=eastwest;newEdgeStyle={&quot;edgeStyle&quot;:&quot;elbowEdgeStyle&quot;,&quot;elbow&quot;:&quot;vertical&quot;,&quot;curved&quot;:0,&quot;rounded&quot;:0};fontSize=11;" vertex="1" parent="1">
          <mxGeometry x="640" y="40" width="100" height="640" as="geometry" />
        </mxCell>
        <mxCell id="cjUs0fhQYjhIE11ryxrH-8" value="" style="html=1;points=[];perimeter=orthogonalPerimeter;outlineConnect=0;targetShapes=umlLifeline;portConstraint=eastwest;newEdgeStyle={&quot;edgeStyle&quot;:&quot;elbowEdgeStyle&quot;,&quot;elbow&quot;:&quot;vertical&quot;,&quot;curved&quot;:0,&quot;rounded&quot;:0};fontSize=11;" vertex="1" parent="cjUs0fhQYjhIE11ryxrH-7">
          <mxGeometry x="45" y="138" width="10" height="82" as="geometry" />
        </mxCell>
        <mxCell id="cjUs0fhQYjhIE11ryxrH-9" value="" style="html=1;points=[[0,0,0,0,5],[0,1,0,0,-5],[1,0,0,0,5],[1,1,0,0,-5]];perimeter=orthogonalPerimeter;outlineConnect=0;targetShapes=umlLifeline;portConstraint=eastwest;newEdgeStyle={&quot;curved&quot;:0,&quot;rounded&quot;:0};fontSize=11;" vertex="1" parent="cjUs0fhQYjhIE11ryxrH-7">
          <mxGeometry x="45" y="430" width="10" height="90" as="geometry" />
        </mxCell>
        <mxCell id="cjUs0fhQYjhIE11ryxrH-10" value="" style="edgeStyle=elbowEdgeStyle;rounded=0;orthogonalLoop=1;jettySize=auto;html=1;elbow=vertical;curved=0;fontSize=11;" edge="1" parent="1">
          <mxGeometry relative="1" as="geometry">
            <mxPoint x="500" y="211" as="sourcePoint" />
            <mxPoint x="685" y="210.70588235294122" as="targetPoint" />
          </mxGeometry>
        </mxCell>
        <mxCell id="cjUs0fhQYjhIE11ryxrH-11" value="&lt;div&gt;{ request to&amp;nbsp;&lt;/div&gt;&lt;div&gt;&amp;nbsp; encrypt StaffNo 123456 }&lt;/div&gt;" style="edgeLabel;html=1;align=left;verticalAlign=middle;resizable=0;points=[];fontSize=11;" vertex="1" connectable="0" parent="cjUs0fhQYjhIE11ryxrH-10">
          <mxGeometry x="-0.6109" y="1" relative="1" as="geometry">
            <mxPoint x="-26" y="-20" as="offset" />
          </mxGeometry>
        </mxCell>
        <mxCell id="cjUs0fhQYjhIE11ryxrH-12" value="" style="edgeStyle=elbowEdgeStyle;rounded=0;orthogonalLoop=1;jettySize=auto;html=1;elbow=vertical;curved=0;fontSize=11;" edge="1" parent="1">
          <mxGeometry relative="1" as="geometry">
            <mxPoint x="680" y="240" as="sourcePoint" />
            <mxPoint x="500" y="240" as="targetPoint" />
          </mxGeometry>
        </mxCell>
        <mxCell id="cjUs0fhQYjhIE11ryxrH-13" value="{on screen}" style="edgeLabel;html=1;align=center;verticalAlign=middle;resizable=0;points=[];fontSize=11;" vertex="1" connectable="0" parent="1">
          <mxGeometry x="210" y="290" as="geometry" />
        </mxCell>
        <UserObject label="ToEncryptRouteValues( string[] params )&lt;br&gt;&lt;div&gt;&amp;nbsp; - use Session ID to generate IV&lt;/div&gt;&lt;div&gt;&amp;nbsp; - process Encrypt( SessionID, IV, Text)&lt;/div&gt;&lt;div&gt;&lt;font color=&quot;#ff0000&quot;&gt;&amp;nbsp; - return: id = IV, enc = CipherText&lt;/font&gt;&lt;br&gt;&lt;/div&gt;" placeholders="1" name="Variable" id="cjUs0fhQYjhIE11ryxrH-14">
          <mxCell style="text;html=1;strokeColor=none;fillColor=none;align=left;verticalAlign=middle;whiteSpace=wrap;overflow=hidden;fontSize=11;" vertex="1" parent="1">
            <mxGeometry x="700" y="188" width="230" height="82" as="geometry" />
          </mxCell>
        </UserObject>
        <mxCell id="cjUs0fhQYjhIE11ryxrH-15" value="callback" style="html=1;verticalAlign=bottom;endArrow=block;edgeStyle=elbowEdgeStyle;elbow=vertical;curved=0;rounded=0;dashed=1;dashPattern=12 12;fontSize=11;align=center;" edge="1" parent="1">
          <mxGeometry x="0.0034" relative="1" as="geometry">
            <mxPoint x="480" y="380" as="sourcePoint" />
            <Array as="points" />
            <mxPoint x="258.75" y="380" as="targetPoint" />
            <mxPoint as="offset" />
          </mxGeometry>
        </mxCell>
        <mxCell id="cjUs0fhQYjhIE11ryxrH-16" value="" style="edgeStyle=orthogonalEdgeStyle;rounded=0;orthogonalLoop=1;jettySize=auto;html=1;curved=0;fontSize=11;" edge="1" parent="1">
          <mxGeometry relative="1" as="geometry">
            <mxPoint x="500" y="485.998823529412" as="sourcePoint" />
            <mxPoint x="680" y="486" as="targetPoint" />
            <Array as="points">
              <mxPoint x="595" y="485.94000000000005" />
              <mxPoint x="595" y="485.94000000000005" />
            </Array>
          </mxGeometry>
        </mxCell>
        <UserObject label="httpGet RequestEditStaff()" placeholders="1" name="Variable" id="cjUs0fhQYjhIE11ryxrH-17">
          <mxCell style="text;html=1;strokeColor=#6c8ebf;fillColor=#dae8fc;align=right;verticalAlign=middle;whiteSpace=wrap;overflow=hidden;fontSize=11;fontFamily=Helvetica;fontStyle=3" vertex="1" parent="1">
            <mxGeometry x="330" y="150" width="160" height="24" as="geometry" />
          </mxCell>
        </UserObject>
        <UserObject label="&lt;div&gt;click Save =&amp;gt;&lt;/div&gt;" placeholders="1" name="Variable" id="cjUs0fhQYjhIE11ryxrH-18">
          <mxCell style="text;html=1;strokeColor=none;fillColor=none;align=right;verticalAlign=middle;whiteSpace=wrap;overflow=hidden;fontSize=11;fontFamily=Helvetica;fontStyle=3" vertex="1" parent="1">
            <mxGeometry x="130" y="460" width="100" height="34" as="geometry" />
          </mxCell>
        </UserObject>
        <mxCell id="cjUs0fhQYjhIE11ryxrH-19" value="" style="edgeStyle=elbowEdgeStyle;rounded=0;orthogonalLoop=1;jettySize=auto;html=1;elbow=vertical;curved=0;fontSize=11;" edge="1" parent="1">
          <mxGeometry relative="1" as="geometry">
            <mxPoint x="260" y="480" as="sourcePoint" />
            <mxPoint x="480" y="480.0029411764707" as="targetPoint" />
          </mxGeometry>
        </mxCell>
        <mxCell id="cjUs0fhQYjhIE11ryxrH-20" value="click submit with &lt;font color=&quot;#ff3333&quot;&gt;param id &amp;amp; enc&lt;/font&gt;" style="edgeLabel;html=1;align=left;verticalAlign=middle;resizable=0;points=[];fontSize=11;" vertex="1" connectable="0" parent="cjUs0fhQYjhIE11ryxrH-19">
          <mxGeometry x="-0.7401" y="1" relative="1" as="geometry">
            <mxPoint x="11" y="-9" as="offset" />
          </mxGeometry>
        </mxCell>
        <mxCell id="cjUs0fhQYjhIE11ryxrH-21" value="" style="edgeStyle=elbowEdgeStyle;rounded=0;orthogonalLoop=1;jettySize=auto;html=1;elbow=vertical;curved=0;fontSize=11;" edge="1" parent="1">
          <mxGeometry relative="1" as="geometry">
            <mxPoint x="680" y="520" as="sourcePoint" />
            <mxPoint x="500" y="520.47" as="targetPoint" />
          </mxGeometry>
        </mxCell>
        <mxCell id="cjUs0fhQYjhIE11ryxrH-22" value="" style="edgeStyle=elbowEdgeStyle;rounded=0;orthogonalLoop=1;jettySize=auto;html=1;fontSize=11;" edge="1" parent="1">
          <mxGeometry relative="1" as="geometry">
            <mxPoint x="500" y="550" as="sourcePoint" />
            <mxPoint x="500" y="591" as="targetPoint" />
            <Array as="points">
              <mxPoint x="530" y="586" />
            </Array>
          </mxGeometry>
        </mxCell>
        <mxCell id="cjUs0fhQYjhIE11ryxrH-23" value="callback" style="html=1;verticalAlign=bottom;endArrow=block;edgeStyle=elbowEdgeStyle;elbow=vertical;curved=0;rounded=0;dashed=1;dashPattern=12 12;fontSize=11;" edge="1" parent="1">
          <mxGeometry relative="1" as="geometry">
            <mxPoint x="472.5" y="610.1800000000001" as="sourcePoint" />
            <Array as="points" />
            <mxPoint x="260" y="610" as="targetPoint" />
          </mxGeometry>
        </mxCell>
        <mxCell id="cjUs0fhQYjhIE11ryxrH-24" value="" style="edgeStyle=elbowEdgeStyle;rounded=0;orthogonalLoop=1;jettySize=auto;html=1;fontSize=11;strokeWidth=2;fillColor=#d5e8d4;strokeColor=#82b366;" edge="1" parent="1">
          <mxGeometry relative="1" as="geometry">
            <mxPoint x="500" y="270" as="sourcePoint" />
            <mxPoint x="500.5" y="340" as="targetPoint" />
            <Array as="points">
              <mxPoint x="561" y="300" />
            </Array>
          </mxGeometry>
        </mxCell>
        <mxCell id="cjUs0fhQYjhIE11ryxrH-25" value="share the same Session ID" style="rounded=0;whiteSpace=wrap;html=1;" vertex="1" parent="1">
          <mxGeometry x="40" y="110" width="870" height="20" as="geometry" />
        </mxCell>
        <mxCell id="cjUs0fhQYjhIE11ryxrH-26" value="" style="html=1;verticalAlign=bottom;startArrow=oval;endArrow=block;startSize=8;edgeStyle=elbowEdgeStyle;elbow=vertical;curved=0;rounded=0;align=right;fontSize=11;" edge="1" parent="1">
          <mxGeometry relative="1" as="geometry">
            <mxPoint x="60" y="210" as="sourcePoint" />
            <mxPoint x="480" y="210" as="targetPoint" />
          </mxGeometry>
        </mxCell>
        <mxCell id="cjUs0fhQYjhIE11ryxrH-27" value="&lt;div align=&quot;right&quot; style=&quot;font-size: 11px;&quot;&gt;{ Request Edit Staff with param&amp;nbsp;&lt;/div&gt;&lt;div align=&quot;right&quot; style=&quot;font-size: 11px;&quot;&gt;StaffNo 123456 }&lt;br style=&quot;font-size: 11px;&quot;&gt;&lt;/div&gt;" style="edgeLabel;html=1;align=center;verticalAlign=middle;resizable=0;points=[];fontSize=11;" vertex="1" connectable="0" parent="cjUs0fhQYjhIE11ryxrH-26">
          <mxGeometry x="0.8303" y="-1" relative="1" as="geometry">
            <mxPoint x="-54" y="-21" as="offset" />
          </mxGeometry>
        </mxCell>
        <mxCell id="cjUs0fhQYjhIE11ryxrH-28" value="Edit Staff (StaffNo = 123456)" style="edgeLabel;html=1;align=center;verticalAlign=middle;resizable=0;points=[];fontSize=11;" vertex="1" connectable="0" parent="cjUs0fhQYjhIE11ryxrH-26">
          <mxGeometry x="-0.6909" y="-3" relative="1" as="geometry">
            <mxPoint x="5" y="-29" as="offset" />
          </mxGeometry>
        </mxCell>
        <mxCell id="cjUs0fhQYjhIE11ryxrH-29" value="with passing&lt;br&gt;&lt;font color=&quot;#ff3333&quot;&gt;params id &amp;amp; enc&lt;/font&gt;" style="edgeLabel;html=1;align=left;verticalAlign=middle;resizable=0;points=[];fontSize=11;" vertex="1" connectable="0" parent="1">
          <mxGeometry x="570" y="280" as="geometry" />
        </mxCell>
        <mxCell id="cjUs0fhQYjhIE11ryxrH-30" value="url: staff/form/&lt;font color=&quot;#ff3333&quot;&gt;AbCde8671xe&lt;/font&gt;?&lt;font color=&quot;#ff3333&quot;&gt;enc&lt;/font&gt;=CeExD13jksoisjfldjgskxx..." style="edgeLabel;html=1;align=left;verticalAlign=middle;resizable=0;points=[];fontSize=11;fontStyle=1" vertex="1" connectable="0" parent="1">
          <mxGeometry x="110" y="350" as="geometry" />
        </mxCell>
        <UserObject label="httpGet StaffForm()" placeholders="1" name="Variable" id="cjUs0fhQYjhIE11ryxrH-31">
          <mxCell style="text;html=1;strokeColor=#6c8ebf;fillColor=#dae8fc;align=right;verticalAlign=middle;whiteSpace=wrap;overflow=hidden;fontSize=11;fontFamily=Helvetica;fontStyle=3" vertex="1" parent="1">
            <mxGeometry x="370" y="290" width="120" height="24" as="geometry" />
          </mxCell>
        </UserObject>
        <mxCell id="cjUs0fhQYjhIE11ryxrH-32" value="&lt;div&gt;redirect to StaffForm()&lt;br&gt;&lt;/div&gt;" style="edgeLabel;html=1;align=left;verticalAlign=middle;resizable=0;points=[];fontSize=11;" vertex="1" connectable="0" parent="1">
          <mxGeometry x="515" y="260" as="geometry" />
        </mxCell>
        <mxCell id="cjUs0fhQYjhIE11ryxrH-33" value="" style="endArrow=classic;html=1;rounded=0;edgeStyle=elbowEdgeStyle;" edge="1" parent="1">
          <mxGeometry width="50" height="50" relative="1" as="geometry">
            <mxPoint x="240" y="380" as="sourcePoint" />
            <mxPoint x="240" y="404" as="targetPoint" />
            <Array as="points">
              <mxPoint x="210" y="370" />
            </Array>
          </mxGeometry>
        </mxCell>
        <UserObject label="httpPost StaffForm()" placeholders="1" name="Variable" id="cjUs0fhQYjhIE11ryxrH-34">
          <mxCell style="text;html=1;strokeColor=#6c8ebf;fillColor=#D5E8D4;align=right;verticalAlign=middle;whiteSpace=wrap;overflow=hidden;fontSize=11;fontFamily=Helvetica;fontStyle=3" vertex="1" parent="1">
            <mxGeometry x="370" y="436" width="120" height="24" as="geometry" />
          </mxCell>
        </UserObject>
        <mxCell id="cjUs0fhQYjhIE11ryxrH-35" value="&lt;div&gt;{ request to&amp;nbsp;&lt;/div&gt;&lt;div&gt;&amp;nbsp; decrypt &lt;font color=&quot;#ff3333&quot;&gt;id &amp;amp; enc&lt;/font&gt;&amp;nbsp; to get StaffNo }&lt;/div&gt;" style="edgeLabel;html=1;align=left;verticalAlign=middle;resizable=0;points=[];fontSize=11;" vertex="1" connectable="0" parent="1">
          <mxGeometry x="500" y="470" as="geometry" />
        </mxCell>
        <UserObject label="ToDecrypttRouteValues( id, enc )&lt;br&gt;&lt;div&gt;&amp;nbsp; - id = IV, enc = CipherText&lt;/div&gt;&lt;div&gt;&amp;nbsp; - use Session ID, IV, CipherText &lt;br&gt;&lt;/div&gt;&amp;nbsp; - process Decrypt( SessionID, IV, Text)&lt;div&gt;&lt;font color=&quot;#ff0000&quot;&gt;&amp;nbsp; - return: Text (StaffNo) &lt;/font&gt;&lt;br&gt;&lt;/div&gt;" placeholders="1" name="Variable" id="cjUs0fhQYjhIE11ryxrH-36">
          <mxCell style="text;html=1;strokeColor=none;fillColor=none;align=left;verticalAlign=middle;whiteSpace=wrap;overflow=hidden;fontSize=11;" vertex="1" parent="1">
            <mxGeometry x="700" y="470" width="230" height="82" as="geometry" />
          </mxCell>
        </UserObject>
        <mxCell id="cjUs0fhQYjhIE11ryxrH-37" value="&lt;div&gt;- use &lt;span style=&quot;background-color: rgb(204, 255, 255);&quot;&gt;StaffNo&lt;/span&gt; to &lt;br&gt;&lt;/div&gt;&lt;div&gt;process Validation()&lt;/div&gt;&lt;div&gt;process Save()&lt;br&gt;&lt;/div&gt;" style="edgeLabel;html=1;align=left;verticalAlign=middle;resizable=0;points=[];fontSize=11;" vertex="1" connectable="0" parent="1">
          <mxGeometry x="535" y="570" as="geometry" />
        </mxCell>
        <mxCell id="cjUs0fhQYjhIE11ryxrH-38" value="return StaffNo" style="edgeLabel;html=1;align=left;verticalAlign=middle;resizable=0;points=[];fontSize=11;" vertex="1" connectable="0" parent="1">
          <mxGeometry x="600" y="511" as="geometry" />
        </mxCell>
        <mxCell id="cjUs0fhQYjhIE11ryxrH-39" value="show Message" style="edgeLabel;html=1;align=center;verticalAlign=middle;resizable=0;points=[];fontSize=11;" vertex="1" connectable="0" parent="1">
          <mxGeometry x="200" y="610" as="geometry" />
        </mxCell>
        <mxCell id="cjUs0fhQYjhIE11ryxrH-40" value="return id, enc" style="edgeLabel;html=1;align=left;verticalAlign=middle;resizable=0;points=[];fontSize=11;" vertex="1" connectable="0" parent="1">
          <mxGeometry x="610" y="229" as="geometry" />
        </mxCell>
        <mxCell id="cjUs0fhQYjhIE11ryxrH-41" value="url: staff/requestEditStaff?StfNo=123456" style="edgeLabel;html=1;align=left;verticalAlign=middle;resizable=0;points=[];fontSize=11;" vertex="1" connectable="0" parent="1">
          <mxGeometry x="170" y="200" as="geometry" />
        </mxCell>
      </root>
    </mxGraphModel>
  </diagram>
</mxfile>
